nColumns=28
nRows=39
DataType=double
version=3
OpenSimVersion=4.1
endheader
time	ground_force_1_vx	ground_force_1_vy	ground_force_1_vz	ground_force_1_px	ground_force_1_py	ground_force_1_pz	ground_force_1_mx	ground_force_1_my	ground_force_1_mz	ground_force_2_vx	ground_force_2_vy	ground_force_2_vz	ground_force_2_px	ground_force_2_py	ground_force_2_pz	ground_force_2_mx	ground_force_2_my	ground_force_2_mz	ground_force_3_vx	ground_force_3_vy	ground_force_3_vz	ground_force_3_px	ground_force_3_py	ground_force_3_pz	ground_force_3_mx	ground_force_3_my	ground_force_3_mz
9.66	0.83361	248.272	-22.8329	-0.254471	0.006	-0.422049	0	-1.18946	0	-3.63269	246.914	24.0873	-0.241379	0.006	-0.75867	0	1.99227	0	0	0	0	0	0	0	0	0	0
9.67	0.885752	244.816	-22.3982	-0.254331	0.006	-0.422189	0	-1.10433	0	-3.3607	244.564	24.0295	-0.241405	0.006	-0.758584	0	1.95192	0	0	0	0	0	0	0	0	0	0
9.68	0.99961	241.499	-21.9993	-0.254233	0.006	-0.422311	0	-1.02249	0	-3.05864	242.43	24.0114	-0.24146	0.006	-0.758506	0	1.91299	0	0	0	0	0	0	0	0	0	0
9.69	1.16711	238.381	-21.6518	-0.254164	0.006	-0.422406	0	-0.945022	0	-2.72973	240.547	24.0321	-0.241551	0.006	-0.758434	0	1.87583	0	0	0	0	0	0	0	0	0	0
9.7	1.37259	235.512	-21.3706	-0.254105	0.006	-0.422469	0	-0.872904	0	-2.38024	238.948	24.0912	-0.241679	0.006	-0.75837	0	1.84062	0	0	0	0	0	0	0	0	0	0
9.71	1.59684	232.927	-21.1685	-0.254037	0.006	-0.422492	0	-0.807034	0	-2.01949	237.659	24.1885	-0.241841	0.006	-0.758315	0	1.80732	0	0	0	0	0	0	0	0	0	0
9.72	1.82157	230.646	-21.0551	-0.253946	0.006	-0.422471	0	-0.748168	0	-1.65911	236.7	24.3237	-0.242031	0.006	-0.758269	0	1.77571	0	0	0	0	0	0	0	0	0	0
9.73	2.03389	228.668	-21.0349	-0.253825	0.006	-0.422406	0	-0.696801	0	-1.31124	236.078	24.4962	-0.242241	0.006	-0.758236	0	1.74549	0	0	0	0	0	0	0	0	0	0
9.74	2.22863	226.975	-21.1074	-0.253681	0.006	-0.422299	0	-0.653162	0	-0.988081	235.796	24.7056	-0.242454	0.006	-0.758217	0	1.71636	0	0	0	0	0	0	0	0	0	0
9.75	2.40757	225.534	-21.2682	-0.253525	0.006	-0.422154	0	-0.617221	0	-0.702194	235.856	24.953	-0.242655	0.006	-0.758215	0	1.68795	0	0	0	0	0	0	0	0	0	0
9.76	2.57475	224.313	-21.5106	-0.253368	0.006	-0.421977	0	-0.588585	0	-0.46626	236.265	25.2418	-0.242824	0.006	-0.758234	0	1.65996	0	0	0	0	0	0	0	0	0	0
9.77	2.73083	223.291	-21.8273	-0.253213	0.006	-0.421773	0	-0.566518	0	-0.292297	237.035	25.5779	-0.242944	0.006	-0.758277	0	1.63203	0	0	0	0	0	0	0	0	0	0
9.78	2.86903	222.457	-22.2104	-0.253054	0.006	-0.421546	0	-0.550029	0	-0.190258	238.176	25.9685	-0.242999	0.006	-0.75835	0	1.60399	0	0	0	0	0	0	0	0	0	0
9.79	2.97615	221.804	-22.6501	-0.252875	0.006	-0.421298	0	-0.53792	0	-0.166519	239.687	26.4207	-0.242975	0.006	-0.758458	0	1.57591	0	0	0	0	0	0	0	0	0	0
9.8	3.03698	221.326	-23.1336	-0.252654	0.006	-0.421034	0	-0.528944	0	-0.221994	241.546	26.9396	-0.242863	0.006	-0.758608	0	1.54807	0	0	0	0	0	0	0	0	0	0
9.81	3.03925	221.012	-23.6449	-0.252371	0.006	-0.420758	0	-0.522038	0	-0.350433	243.702	27.5258	-0.242657	0.006	-0.758801	0	1.52108	0	0	0	0	0	0	0	0	0	0
9.82	2.97691	220.839	-24.1655	-0.252012	0.006	-0.420476	0	-0.516435	0	-0.538542	246.077	28.1743	-0.242359	0.006	-0.759039	0	1.49588	0	0	0	0	0	0	0	0	0	0
9.83	2.85238	220.778	-24.6749	-0.251574	0.006	-0.420192	0	-0.511798	0	-0.767273	248.572	28.8735	-0.241972	0.006	-0.759322	0	1.47352	0	0	0	0	0	0	0	0	0	0
9.84	2.67701	220.79	-25.1525	-0.25106	0.006	-0.419912	0	-0.5084	0	-1.01457	251.071	29.6052	-0.241505	0.006	-0.759647	0	1.45523	0	0	0	0	0	0	0	0	0	0
9.85	2.46845	220.842	-25.5805	-0.250483	0.006	-0.419641	0	-0.507132	0	-1.25953	253.451	30.3475	-0.240966	0.006	-0.760011	0	1.44235	0	0	0	0	0	0	0	0	0	0
9.86	2.24519	220.918	-25.9474	-0.249862	0.006	-0.419382	0	-0.509259	0	-1.4866	255.596	31.0777	-0.240361	0.006	-0.760411	0	1.43609	0	0	0	0	0	0	0	0	0	0
9.87	2.02181	221.025	-26.2487	-0.249215	0.006	-0.419138	0	-0.516225	0	-1.68787	257.403	31.7748	-0.239697	0.006	-0.760842	0	1.43735	0	0	0	0	0	0	0	0	0	0
9.88	1.80695	221.198	-26.4889	-0.248558	0.006	-0.418911	0	-0.529578	0	-1.86418	258.795	32.4212	-0.238974	0.006	-0.761299	0	1.44641	0	0	0	0	0	0	0	0	0	0
9.89	1.60416	221.488	-26.682	-0.247905	0.006	-0.418698	0	-0.55092	0	-2.02433	259.725	33.0028	-0.238197	0.006	-0.761775	0	1.46304	0	0	0	0	0	0	0	0	0	0
9.9	1.41398	221.962	-26.8502	-0.247268	0.006	-0.418494	0	-0.581763	0	-2.18032	260.168	33.5046	-0.237374	0.006	-0.762259	0	1.48653	0	0	0	0	0	0	0	0	0	0
9.91	1.23494	222.689	-27.0209	-0.246662	0.006	-0.418293	0	-0.623207	0	-2.34127	260.127	33.9079	-0.236521	0.006	-0.762737	0	1.51594	0	0	0	0	0	0	0	0	0	0
9.92	1.06429	223.727	-27.2221	-0.246102	0.006	-0.418091	0	-0.675743	0	-2.50936	259.629	34.1909	-0.235664	0.006	-0.76319	0	1.55028	0	0	0	0	0	0	0	0	0	0
9.93	0.899204	225.123	-27.4766	-0.245603	0.006	-0.417885	0	-0.739143	0	-2.67741	258.731	34.3331	-0.234834	0.006	-0.763597	0	1.5887	0	0	0	0	0	0	0	0	0	0
9.94	0.738532	226.904	-27.7958	-0.245177	0.006	-0.417676	0	-0.8125	0	-2.83078	257.518	34.3217	-0.23407	0.006	-0.763941	0	1.63037	0	0	0	0	0	0	0	0	0	0
9.95	0.583854	229.076	-28.1772	-0.244835	0.006	-0.41747	0	-0.89444	0	-2.95429	256.099	34.1565	-0.233412	0.006	-0.764206	0	1.6742	0	0	0	0	0	0	0	0	0	0
9.96	0.439635	231.631	-28.6057	-0.244585	0.006	-0.417276	0	-0.983368	0	-3.03718	254.601	33.8519	-0.232893	0.006	-0.764382	0	1.71895	0	0	0	0	0	0	0	0	0	0
9.97	0.313161	234.549	-29.0583	-0.244431	0.006	-0.417104	0	-1.07762	0	-3.07337	253.155	33.4323	-0.232539	0.006	-0.764462	0	1.76327	0	0	0	0	0	0	0	0	0	0
9.98	0.214085	237.805	-29.5104	-0.244374	0.006	-0.416961	0	-1.17559	0	-3.0592	251.885	32.9271	-0.23237	0.006	-0.764444	0	1.80595	0	0	0	0	0	0	0	0	0	0
9.99	0.152821	241.363	-29.9411	-0.244408	0.006	-0.416853	0	-1.27577	0	-2.99168	250.902	32.3668	-0.232394	0.006	-0.764331	0	1.84588	0	0	0	0	0	0	0	0	0	0
10	0.137866	245.186	-30.3367	-0.244527	0.006	-0.416782	0	-1.37672	0	-2.86845	250.297	31.7804	-0.23261	0.006	-0.764131	0	1.88196	0	0	0	0	0	0	0	0	0	0
10.01	0.173182	249.232	-30.6922	-0.24472	0.006	-0.416743	0	-1.47683	0	-2.68923	250.135	31.1947	-0.233006	0.006	-0.763857	0	1.91321	0	0	0	0	0	0	0	0	0	0
10.02	0.258335	253.453	-31.0086	-0.244974	0.006	-0.416734	0	-1.57426	0	-2.45703	250.453	30.6337	-0.23356	0.006	-0.763524	0	1.93903	0	0	0	0	0	0	0	0	0	0
10.03	0.39018	257.794	-31.2912	-0.245276	0.006	-0.41675	0	-1.66685	0	-2.1779	251.262	30.1175	-0.234249	0.006	-0.763151	0	1.95899	0	0	0	0	0	0	0	0	0	0
10.04	0.563915	262.198	-31.5463	-0.245614	0.006	-0.416784	0	-1.75235	0	-1.85956	252.546	29.6635	-0.235043	0.006	-0.762753	0	1.97271	0	0	0	0	0	0	0	0	0	0
